:SAMPLES-PER-SECOND 30
:FRAME-RANGE 1-1770
:FULLY-SPECIFIED
:DEGREES
775
root  29.0386 37.0649 -10.817 -8.02002 -37.5855 4.67836
RightUpLeg  1.01114 -0.503927 -8.47637
RightLeg  51.9321 4.52246 5.80915
RightFoot  -18.4643 1.1119 19.7118
RightToes  6.35937e-011 1.2921e-014 -6.02303e-014
Spine  6.52548 0.31372 -4.55052
Spine1  1.71786 0.092301 -1.64979
HEad  6.00165 1.52296 0.200945
LeftShoulder1  1.88196 -2.863 -23.2945
LeftArm  2.94351 -52.1105 -41.6394
LeftForeArm  15.4406 -29.2098 -5.49153
LeftHand  -0.371534 -0.867732 7.01876
RightShoulder  12.9358 29.3085 33.1081
RightArm  -13.4918 30.2953 12.5252
RightForeArm  29.9148 45.729 9.3716
RightHand  -0.850664 2.52351 -12.653
LeftUpLeg  -25.3695 14.8634 -1.18199
LeftLeg  23.6603 -3.07339 -1.1351
LeftFoot  7.34253 0.48136 -3.19809
LeftToes  3.18074e-010 1.39432e-010 -7.71186e-011
776
root  28.9643 36.8786 -9.97266 -9.0191 -39.1428 6.09207
RightUpLeg  -5.91809 -0.299075 -11.7912
RightLeg  62.6211 3.85098 7.51769
RightFoot  -8.08484 -0.659028 21.0109
RightToes  6.35937e-011 1.2921e-014 -6.02303e-014
Spine  8.48953 0.810195 -4.87423
Spine1  1.10457 0.728165 -3.41896
HEad  4.62994 1.8683 0.0547781
LeftShoulder1  1.92062 -2.99008 -23.3132
LeftArm  1.98558 -52.363 -41.6628
LeftForeArm  15.7404 -28.9135 -5.40516
LeftHand  -0.375389 -0.765894 7.19909
RightShoulder  13.3293 30.4116 32.9457
RightArm  -13.5464 30.7599 12.6916
RightForeArm  29.3179 45.3452 9.27445
RightHand  -0.819631 3.11435 -11.3948
LeftUpLeg  -25.969 15.7864 -2.36514
LeftLeg  27.7313 -2.08691 -0.836522
LeftFoot  4.20396 0.293756 -2.3394
LeftToes  3.18074e-010 1.39432e-010 -7.71186e-011
777
root  28.8812 36.6564 -9.26501 -9.34094 -40.0377 6.80464
RightUpLeg  -11.8666 -0.452468 -13.4022
RightLeg  69.1138 1.86192 4.66563
RightFoot  -5.11434 -1.06586 18.7923
RightToes  6.35937e-011 1.2921e-014 -6.02303e-014
Spine  10.3787 1.09004 -5.28556
Spine1  0.572617 0.973292 -4.33848
HEad  3.03075 2.29258 -0.614658
LeftShoulder1  1.9541 -3.09322 -23.3615
LeftArm  0.512558 -53.184 -41.8059
LeftForeArm  16.5844 -28.3333 -5.22344
LeftHand  -0.387825 -0.839853 7.35239
RightShoulder  13.6102 31.7628 32.185
RightArm  -13.913 31.7323 12.8329
RightForeArm  28.9835 43.8196 8.76281
RightHand  -0.820438 3.08598 -11.4419
LeftUpLeg  -26.9131 15.0184 -2.9786
LeftLeg  31.496 -0.53561 0.01643
LeftFoot  1.30062 0.197614 -1.85548
LeftToes  3.18074e-010 1.39432e-010 -7.71186e-011
778
root  28.7728 36.7044 -8.5738 -8.52472 -40.2698 6.16237
RightUpLeg  -16.5647 -1.26733 -13.2858
RightLeg  71.1545 0.131922 -0.432867
RightFoot  -8.9429 -0.387194 15.4881
RightToes  6.35937e-011 1.2921e-014 -6.02303e-014
Spine  11.8758 0.972819 -4.42675
Spine1  -0.0288354 1.03204 -4.66958
HEad  1.28453 2.32073 -0.956152
LeftShoulder1  2.01443 -3.3098 -23.3039
LeftArm  -0.991071 -54.3938 -42.2045
LeftForeArm  17.92 -27.8369 -5.03604
LeftHand  -0.410974 -0.674717 7.98285
RightShoulder  13.6948 32.7568 31.3176
RightArm  -14.4606 33.033 12.9366
RightForeArm  28.6108 41.6736 8.08249
RightHand  -0.850414 3.04405 -11.9049
LeftUpLeg  -26.9933 13.9985 -2.76741
LeftLeg  33.0377 0.357108 0.625385
LeftFoot  -0.590741 0.160226 -1.66543
LeftToes  3.18074e-010 1.39432e-010 -7.71186e-011
779
root  28.6186 36.8556 -7.98299 -7.23938 -40.3749 5.28438
RightUpLeg  -20.4797 -1.63859 -12.1941
RightLeg  68.8538 -1.71262 -5.66169
RightFoot  -10.9938 -0.11542 13.2719
RightToes  6.35937e-011 1.2921e-014 -6.02303e-014
Spine  12.7663 0.842544 -3.78201
Spine1  -0.332872 1.06727 -4.60699
HEad  -0.15033 2.21298 -0.825896
LeftShoulder1  2.04957 -3.5424 -22.8014
LeftArm  -2.51474 -55.7372 -42.7817
LeftForeArm  18.9807 -27.508 -4.90336
LeftHand  -0.433068 -0.484292 8.66296
RightShoulder  13.8398 33.9126 30.484
RightArm  -15.6526 34.0455 12.7806
RightForeArm  27.5265 39.6652 7.53513
RightHand  -0.870143 2.48365 -12.9984
LeftUpLeg  -26.9514 13.8477 -2.4249
LeftLeg  33.4916 0.355581 0.628937
LeftFoot  -1.98974 0.152358 -1.71662
LeftToes  3.18074e-010 1.39432e-010 -7.71186e-011
